<svg xmlns:xlink="http://www.w3.org/1999/xlink" aria-hidden="true" focusable="false" data-prefix="fab" data-icon="npm" role="img" xmlns="http://www.w3.org/2000/svg" viewBox="0 0 576 512" class="svg-inline--fa fa-npm fa-w-18 fa-fw fa-3x" style="color: rgb(202, 56, 55); transform-origin: 0.5625em 0.5em;" width="576"  height="512" ><g transform="translate(288 256)" class=""><g transform="translate(0, 0)  scale(1.125, 1.125)  rotate(0 0 0)" class=""><path fill="#CA3837" d="M288 288h-32v-64h32v64zm288-128v192H288v32H160v-32H0V160h576zm-416 32H32v128h64v-96h32v96h32V192zm160 0H192v160h64v-32h64V192zm224 0H352v128h64v-96h32v96h32v-96h32v96h32V192z" transform="translate(-288 -256)" class=""></path></g></g></svg>