<svg xmlns:xlink="http://www.w3.org/1999/xlink" aria-hidden="true" focusable="false" data-prefix="fad" data-icon="desktop-alt" role="img" xmlns="http://www.w3.org/2000/svg" viewBox="0 0 576 512" class="teal5 svg-inline--fa fa-desktop-alt fa-w-18 fa-fw fa-3x" style="transform-origin: 0.5625em 0.5em;" width="576"  height="512" ><g transform="translate(288 256)" class=""><g transform="translate(0, 0)  scale(0.8125, 0.8125)  rotate(0 0 0)" class=""><g transform="translate(-288 -256)" class="fa-group"><path fill="#20C997" d="M528 0H48A48 48 0 0 0 0 48v320a48 48 0 0 0 48 48h480a48 48 0 0 0 48-48V48a48 48 0 0 0-48-48zm-16 288H64V64h448z" class="fa-secondary"></path><path fill="#20C997" d="M64 64v224h448V64zm360 400h-72l-16-48h-96l-16 48h-72a24 24 0 0 0 0 48h272a24 24 0 0 0 0-48z" class="fa-primary"></path></g></g></g></svg>